# xmcd CD database file
#
# Track frame offsets:
#	150
#	34126
#	62631
#	87310
#	136482
#	169038
#
# Disc length: 2605 seconds
#
# Revision: 0
# Processed by: cddbd v1.5.2PL0 Copyright (c) Steve Scherf et al.
# Submitted via: CDex 1.70beta2
#
DISCID=4b0a2b06
DTITLE=John Ruocco - Am I Asking Too Much?
DYEAR=2008
DGENRE=Jazz
TTITLE0=Kuk Kuk
TTITLE1=Am I Asking Too Much (If I Ask For World Peace)
TTITLE2=A Glimmer
TTITLE3=Benebe
TTITLE4=Waltz 4
TTITLE5=Little Stones
EXTD=YEAR: 2008
EXTT0=
EXTT1=
EXTT2=
EXTT3=
EXTT4=
EXTT5=
PLAYORDER=
